<!--?xml version="1.0" standalone="no"?-->
              <svg id="sw-js-blob-svg" viewBox="0 0 100 100" xmlns="http://www.w3.org/2000/svg" version="1.1">
                    <defs> 
                        <linearGradient id="sw-gradient" x1="0" x2="1" y1="1" y2="0">
                            <stop id="stop1" stop-color="rgba(248, 117, 55, 1)" offset="0%"></stop>
                            <stop id="stop2" stop-color="rgba(251, 168, 31, 1)" offset="100%"></stop>
                        </linearGradient>
                    </defs>
                <path fill="url(#sw-gradient)" d="M22.2,-38.5C28.2,-35,32.3,-28,35.7,-21C39.1,-14,41.9,-7,41.5,-0.2C41.2,6.6,37.6,13.1,33.7,19.2C29.8,25.3,25.4,30.9,19.7,34.3C14,37.7,7,38.8,0.2,38.5C-6.6,38.2,-13.3,36.4,-19.3,33.1C-25.2,29.9,-30.5,25.3,-34.4,19.5C-38.3,13.8,-40.8,6.9,-40.9,-0.1C-41,-7,-38.8,-14.1,-35.6,-21.1C-32.5,-28.1,-28.4,-35.1,-22.3,-38.7C-16.2,-42.2,-8.1,-42.2,0,-42.2C8.1,-42.2,16.2,-42.1,22.2,-38.5Z" width="100%" height="100%" transform="translate(50 50)" stroke-width="0" style="transition: all 0.3s ease 0s;"></path>
              </svg>